:SAMPLES-PER-SECOND 30
:FULLY-SPECIFIED
:DEGREES
276
root  79.8444 38.9695 1.80246 -163.868 -87.1372 167.557
RightUpLeg  -19.2177 -5.62432 -4.65787
RightLeg  15.8036 -0.570284 -0.398352
RightFoot  -3.71756 -0.486866 6.91821
RightToes  -2.32831e-009 0 -3.6325e-017
Spine  11.6206 0.623953 -3.73903
Spine1  6.31838 1.56343 -4.59687
HEad  -27.6958 45.3901 -28.0806
LeftShoulder1  -0.61789 5.29618 -28.2858
LeftArm  -11.3269 15.0586 -35.9927
LeftForeArm  24.7557 -31.1055 -5.41771
LeftHand  -0.0315723 7.57311 0.24712
RightShoulder  -0.6496 -5.58359 24.5312
RightArm  8.17733 -13.0771 42.6647
RightForeArm  21.7803 35.2259 6.63486
RightHand  -0.0719308 9.34852 -0.965147
LeftUpLeg  -7.82001 6.33273 0.746327
LeftLeg  12.3332 0.665383 -0.230164
LeftFoot  -9.42789 0.0713315 -0.863373
LeftToes  8.91272e-011 -1.70619e-011 7.36378e-012
277
root  80.4953 38.9871 1.86872 -160.168 -85.9122 163.892
RightUpLeg  -17.8007 -5.18942 -5.48772
RightLeg  21.332 -1.14454 -0.710727
RightFoot  -5.88613 -0.309291 5.61583
RightToes  -2.32831e-009 0 -3.6325e-017
Spine  12.2863 0.680485 -4.24035
Spine1  4.37425 1.46991 -4.76572
HEad  -26.5695 44.676 -25.5543
LeftShoulder1  -0.676097 5.43518 -28.8172
LeftArm  -8.65726 16.0774 -34.7741
LeftForeArm  21.7688 -28.3242 -4.92624
LeftHand  -0.0108867 10.3916 1.1045
RightShoulder  -0.74804 -5.84709 25.2677
RightArm  8.97427 -12.8421 41.3312
RightForeArm  19.024 37.1115 7.32384
RightHand  -0.112404 9.85588 -1.25601
LeftUpLeg  -8.10835 6.01106 0.253482
LeftLeg  11.001 2.0214 -0.231901
LeftFoot  -9.06492 0.0853403 -1.55963
LeftToes  8.91272e-011 -1.70619e-011 7.36378e-012
278
root  81.0809 38.9518 1.88182 -154.195 -85.0141 158.073
RightUpLeg  -16.0627 -4.17693 -6.45569
RightLeg  26.1042 -1.1608 -0.820629
RightFoot  -7.42485 -0.204939 4.41842
RightToes  -2.32831e-009 0 -3.6325e-017
Spine  13.156 0.538844 -4.5109
Spine1  1.91038 1.27911 -5.53222
HEad  -26.1562 44.8057 -23.5438
LeftShoulder1  -0.78998 5.73725 -29.1957
LeftArm  -6.31205 16.4844 -33.9092
LeftForeArm  20.2141 -24.6854 -4.28059
LeftHand  -0.0779153 9.85897 -0.606558
RightShoulder  -0.809227 -5.9648 26.2631
RightArm  9.6525 -13.257 40.0365
RightForeArm  14.3562 37.9326 7.85346
RightHand  -0.20346 10.1121 -1.93173
LeftUpLeg  -8.87562 5.82951 -0.290563
LeftLeg  10.6502 2.51605 -0.537461
LeftFoot  -9.55133 0.0981872 -2.71867
LeftToes  8.91272e-011 -1.70619e-011 7.36378e-012
279
root  81.6416 38.8757 1.91153 -141.905 -85.0083 145.873
RightUpLeg  -12.9417 -5.02315 -7.3482
RightLeg  27.8002 1.14472 0.417308
RightFoot  -8.49488 -0.167508 5.79989
RightToes  -2.32831e-009 0 -3.6325e-017
Spine  13.4794 0.242949 -4.64728
Spine1  0.429778 0.816346 -5.51004
HEad  -26.2684 43.6877 -21.8093
LeftShoulder1  -0.790918 5.69244 -29.9582
LeftArm  -4.53125 15.958 -33.7783
LeftForeArm  19.7498 -20.4297 -3.98644
LeftHand  -0.0688736 8.95571 -0.603271
RightShoulder  -0.87419 -6.11858 26.8434
RightArm  9.63009 -13.9373 39.2638
RightForeArm  11.0597 37.652 7.97711
RightHand  -0.157208 10.5254 -1.55535
LeftUpLeg  -9.82832 5.45341 -1.0644
LeftLeg  10.6547 2.77524 -0.787752
LeftFoot  -10.4005 0.101582 -4.74622
LeftToes  8.91272e-011 -1.70619e-011 7.36378e-012
280
root  82.1489 38.7494 1.95169 -122.705 -85.0748 126.523
RightUpLeg  -8.50236 -6.13174 -8.50073
RightLeg  25.9898 3.62458 1.69021
RightFoot  -13.0332 0.0321205 9.66521
RightToes  -2.32831e-009 0 -3.6325e-017
Spine  13.0287 -0.456468 -4.38241
Spine1  0.744249 0.206325 -6.15861
HEad  -26.2435 42.5871 -20.7513
LeftShoulder1  -0.833407 5.7894 -30.2951
LeftArm  -5.37574 15.5004 -34.6161
LeftForeArm  21.2874 -17.866 -4.44298
LeftHand  -0.0998408 10.0208 -1.04273
RightShoulder  -0.929701 -6.25298 27.2455
RightArm  9.81972 -14.2027 39.5945
RightForeArm  9.70415 36.3261 7.67643
RightHand  -0.211217 10.818 -1.92671
LeftUpLeg  -10.873 4.53053 -2.45902
LeftLeg  11.1076 2.49706 -0.769306
LeftFoot  -10.6508 0.097981 -5.66187
LeftToes  8.91272e-011 -1.70619e-011 7.36378e-012
281
root  82.5832 38.77 1.87521 -130.312 -83.9492 134.058
RightUpLeg  -4.7165 -3.59374 -8.08269
RightLeg  20.8519 3.21117 1.23342
RightFoot  -14.917 0.100039 6.44337
RightToes  -2.32831e-009 0 -3.6325e-017
Spine  12.2418 0.172023 -3.34697
Spine1  1.16663 1.12236 -6.77014
HEad  -26.4491 41.4764 -20.2198
LeftShoulder1  -0.841987 5.80789 -30.3554
LeftArm  -6.80817 15.3699 -36.0111
LeftForeArm  23.0295 -16.2827 -4.6875
LeftHand  -0.153752 12.9303 -1.27064
RightShoulder  -0.992117 -6.39535 27.7597
RightArm  10.8311 -14.5911 39.9452
RightForeArm  9.41451 33.9333 7.02771
RightHand  -0.165112 10.9193 -1.59297
LeftUpLeg  -11.0415 4.5686 -2.56413
LeftLeg  10.3542 3.86047 -0.831414
LeftFoot  -9.62352 0.138781 -5.37361
LeftToes  8.91272e-011 -1.70619e-011 7.36378e-012
282
root  82.9986 38.8489 1.85049 -134.192 -82.9414 137.925
RightUpLeg  -1.94234 -0.992366 -7.33087
RightLeg  13.9728 0.549759 -0.761993
RightFoot  -15.0663 0.0113015 3.19154
RightToes  -2.32831e-009 0 -3.6325e-017
Spine  12.0513 0.472708 -1.75682
Spine1  1.13076 1.74652 -7.40754
HEad  -27.5076 40.5013 -20.686
LeftShoulder1  -0.989065 6.16321 -31.0221
LeftArm  -6.27022 15.576 -36.9078
LeftForeArm  22.3939 -16.4566 -4.7619
LeftHand  -0.163456 14.6276 -1.58267
RightShoulder  -1.04403 -6.503 28.2746
RightArm  13.3239 -14.8676 40.0961
RightForeArm  9.18768 31.3265 6.3634
RightHand  -0.13138 11.099 -1.34472
LeftUpLeg  -10.9391 4.1404 -2.82955
LeftLeg  8.94923 5.39202 -0.729639
LeftFoot  -8.17175 0.19529 -5.32282
LeftToes  8.91272e-011 -1.70619e-011 7.36378e-012
283
root  83.4282 39.0104 1.84801 -141.912 -82.1386 145.644
RightUpLeg  -0.680936 -4.72708 -6.3288
RightLeg  9.26469 3.79675 -1.92991
RightFoot  -13.2244 -0.0880456 0.409126
RightToes  -2.32831e-009 0 -3.6325e-017
Spine  11.5525 0.771652 1.05309
Spine1  2.09986 2.56209 -8.1623
HEad  -29.5842 39.6837 -22.1564
LeftShoulder1  -0.989383 6.13771 -31.3883
LeftArm  -7.93385 15.994 -38.1738
LeftForeArm  22.8733 -16.4447 -4.40979
LeftHand  -0.054082 5.42946 -4.87545
RightShoulder  -1.0868 -6.61224 28.439
RightArm  15.5927 -14.8739 40.8577
RightForeArm  8.93712 28.5751 5.70382
RightHand  -0.137567 10.4777 -1.41533
LeftUpLeg  -10.1477 4.07784 -2.34067
LeftLeg  6.10527 6.60579 -1.0483
LeftFoot  -6.03369 0.259444 -4.81942
LeftToes  8.91272e-011 -1.70619e-011 7.36378e-012
284
root  83.9615 39.1011 1.90285 -144.336 -82.4366 148.483
RightUpLeg  -0.952687 -7.43923 -6.18825
RightLeg  7.24595 6.87183 -1.3513
RightFoot  -12.0099 -0.0750963 0.967112
RightToes  -2.32831e-009 0 -3.6325e-017
Spine  12.2328 0.345509 4.23638
Spine1  1.35651 2.51317 -9.0592
HEad  -31.69 39.3332 -23.7735
LeftShoulder1  -0.953743 6.04839 -31.3087
LeftArm  -7.82941 16.8816 -40.1772
LeftForeArm  22.3337 -17.7531 -4.12617
LeftHand  0.0601985 4.08598 -6.33339
RightShoulder  -1.09038 -6.57915 28.9257
RightArm  18.5254 -15.1925 40.8847
RightForeArm  8.42523 26.1103 5.16266
RightHand  -0.192649 10.4256 -1.83047
LeftUpLeg  -10.7476 3.61707 -1.98725
LeftLeg  4.5394 7.09317 -0.907137
LeftFoot  -4.19002 0.317408 -4.66518
LeftToes  8.91272e-011 -1.70619e-011 7.36378e-012
285
root  84.5735 39.134 1.90018 -149.42 -82.3792 154.39
RightUpLeg  -2.54726 -8.33124 -5.882
RightLeg  6.70687 8.20747 0.0152043
RightFoot  -11.1933 -0.0773349 0.942851
RightToes  -2.32831e-009 0 -3.6325e-017
Spine  12.8918 0.329551 6.38205
Spine1  0.73851 2.63196 -9.04509
HEad  -34.3953 39.4161 -26.3132
LeftShoulder1  -0.979932 6.09921 -31.5826
LeftArm  -5.24007 17.432 -42.4379
LeftForeArm  22.0103 -20.4478 -3.96212
LeftHand  -0.12587 7.73938 -3.48853
RightShoulder  -1.13572 -6.68375 29.1987
RightArm  20.8539 -15.2218 40.7055
RightForeArm  7.94322 24.0118 4.71675
RightHand  -0.158919 9.33586 -1.64172
LeftUpLeg  -12.3665 3.95671 -1.18857
LeftLeg  4.12331 7.6091 -1.04156
LeftFoot  -3.16499 0.396038 -5.27028
LeftToes  8.91272e-011 -1.70619e-011 7.36378e-012
286
root  85.0834 39.1444 1.86346 -152.827 -81.4509 157.951
RightUpLeg  -3.83232 -8.13893 -5.638
RightLeg  6.99614 8.98613 0.260485
RightFoot  -10.8874 -0.0786726 1.27263
RightToes  -2.32831e-009 0 -3.6325e-017
Spine  12.7662 0.686183 6.9882
Spine1  1.95025 2.95114 -8.05504
HEad  -36.5002 39.2997 -28.2033
LeftShoulder1  -0.982701 6.09147 -31.8008
LeftArm  -4.96294 17.3538 -44.5488
LeftForeArm  23.0678 -22.0525 -3.76057
LeftHand  -0.0806351 6.62185 -3.743
RightShoulder  -1.09913 -6.59503 29.0327
RightArm  21.764 -15.3293 40.7162
RightForeArm  8.56071 22.7828 4.5188
RightHand  -0.0234965 9.4221 -0.582844
LeftUpLeg  -12.4676 4.44185 -0.721722
LeftLeg  2.57692 8.39444 -1.56068
LeftFoot  -2.27992 0.496202 -6.09172
LeftToes  8.91272e-011 -1.70619e-011 7.36378e-012
287
root  85.5852 39.1306 1.76312 -152.197 -81.1733 157.053
RightUpLeg  -4.76057 -8.32919 -5.67306
RightLeg  7.82353 9.40336 0.661936
RightFoot  -10.8649 -0.0778097 0.929057
RightToes  -2.32831e-009 0 -3.6325e-017
Spine  13.1421 0.651667 6.59661
Spine1  2.62766 2.61546 -6.44537
HEad  -37.6662 39.1805 -29.1169
LeftShoulder1  -0.90601 5.89981 -31.6492
LeftArm  -2.93643 17.1753 -45.7696
LeftForeArm  24.2572 -23.8074 -3.82708
LeftHand  -0.0803319 6.71818 -3.39448
RightShoulder  -1.10192 -6.58356 29.2546
RightArm  21.9604 -15.045 40.7859
RightForeArm  8.38527 20.819 4.52349
RightHand  -0.110506 9.41329 -1.26698
LeftUpLeg  -12.2891 4.64634 -0.55902
LeftLeg  1.21512 8.44207 -1.98022
LeftFoot  -0.95161 0.56904 -6.19496
LeftToes  8.91272e-011 -1.70619e-011 7.36378e-012
288
root  85.9463 39.116 1.64802 -149.173 -81.9153 153.521
RightUpLeg  -4.85467 -8.47544 -5.66857
RightLeg  8.37581 8.7932 0.769754
RightFoot  -11.2193 -0.0757108 0.993632
RightToes  -2.32831e-009 0 -3.6325e-017
Spine  13.4469 0.134007 6.57294
Spine1  2.80311 1.8259 -5.21057
HEad  -35.6794 38.4896 -27.13
LeftShoulder1  -0.847832 5.73604 -31.816
LeftArm  0.0201246 16.9315 -44.9731
LeftForeArm  24.5132 -25.5641 -4.17439
LeftHand  -0.106936 7.54465 -3.6596
RightShoulder  -1.12786 -6.61017 29.7876
RightArm  20.6883 -15.3835 40.3218
RightForeArm  9.23797 19.3449 4.68917
RightHand  -0.124083 8.93511 -1.39609
LeftUpLeg  -12.1191 4.19297 -0.719367
LeftLeg  0.635697 8.23245 -1.6998
LeftFoot  -0.246889 0.628373 -6.45159
LeftToes  8.91272e-011 -1.70619e-011 7.36378e-012
